<svg width="78" height="38" viewBox="0 0 78 38" fill="none" xmlns="http://www.w3.org/2000/svg">
<path d="M75.1743 0.104836C75.0896 0.138325 74.8442 0.341309 74.6228 0.557274C74.1546 1.01791 73.6127 1.33227 72.6921 1.67262C70.7607 2.3868 68.7303 2.71349 66.693 2.94107C65.4607 3.07844 64.1458 3.05382 63.0059 3.60671C62.2028 3.99627 61.1845 5.70896 60.309 5.00571C59.8867 4.66468 58.1706 3.44886 57.617 3.09758C56.6568 2.49616 54.7145 1.65142 53.1337 1.14637C51.6247 0.661129 50.2305 0.359753 48.5349 0.139008C47.5016 0.00300217 45.1239 -0.0448418 44.1384 0.0481033C40.0344 0.432877 36.5831 1.93231 32.9418 4.9066C32.1449 5.55586 30.1636 7.42506 29.5273 8.12079L29.1931 8.49531L29.0018 8.04631C28.8945 7.80369 28.6081 7.11271 28.3669 6.51266C27.704 4.90045 27.4019 4.3469 26.9064 3.82339C26.3125 3.20147 25.8806 2.98001 25.139 2.93013C24.487 2.88229 23.9143 3.01011 23.4988 3.29236C23.2241 3.48236 21.8716 5.15332 21.482 5.8019C20.9366 6.68557 19.6709 9.1261 19.5083 9.59494C19.4105 9.87378 19.1208 10.603 18.8645 11.2256C18.6075 11.8421 18.3047 12.6184 18.1879 12.9451C17.9083 13.7283 17.5167 14.4788 17.2898 14.6585C17.0691 14.8382 16.7998 14.8369 16.6365 14.6646C16.5142 14.5355 16.5148 14.4993 16.5729 13.716C16.6358 12.9629 16.6563 12.8672 16.8668 12.3997C17.281 11.4942 17.2461 10.8101 16.7732 10.5695C16.3891 10.3734 16.1629 10.5347 15.923 11.1873C15.7603 11.6446 15.4002 12.1202 15.2266 12.1154C15.1903 12.1147 15.0906 12.0519 15.0086 11.9719C14.8561 11.8359 14.8561 11.8359 14.8821 10.8955C14.8965 10.3747 14.9429 9.77675 14.9908 9.56831C15.0468 9.27648 15.0509 9.1268 15.0017 8.96346C14.8589 8.48028 14.1768 8.22195 13.762 8.49191C13.518 8.64704 13.3232 8.96552 13.3164 9.22249C13.3102 9.45007 13.6882 11.1805 13.8173 11.5017C13.9294 11.7922 13.924 11.9842 13.8009 12.1004C13.6472 12.2521 13.5405 12.207 13.1906 11.838C12.9521 11.5796 12.7683 11.2987 12.5359 10.8012C12.1621 10.018 11.9871 9.83893 11.5736 9.828C11.2025 9.81775 11.0166 10.0282 11.005 10.4656C10.9914 10.9748 11.1971 11.3281 12.0411 12.2378C12.6986 12.9451 12.9063 13.2383 12.9009 13.4358C12.9002 13.4659 12.8441 13.5424 12.7765 13.606C12.6227 13.7516 12.3411 13.7495 11.8955 13.606C11.5333 13.4884 11.2271 13.5096 11.085 13.6675C10.7699 14.0065 11.0153 14.6845 11.5244 14.9079C11.6488 14.9592 12.0534 15.0665 12.4286 15.1485C13.6977 15.4294 13.7264 15.4656 14.6279 17.5521C15.0502 18.5404 15.273 18.9422 15.5348 19.219C16.0474 19.7664 16.8914 19.7835 17.6609 19.2593C18.1735 18.9135 19.1638 17.7722 20.1548 16.3855C21.1526 14.9804 21.685 14.1261 22.4866 12.656C22.9213 11.8605 23.0525 11.6657 23.1735 11.6384C23.615 11.5386 23.6915 12.4524 23.7421 12.7025C23.9212 13.5903 24.008 14.4159 24.2902 15.292C24.5178 15.9987 24.6805 16.7881 24.3797 17.4667C24.1993 17.8747 23.8706 18.1946 23.5986 18.5472C22.8092 19.5717 22.7204 20.6282 22.6889 21.8618C22.6575 23.0947 21.8278 23.9777 21.3645 25.0719C20.9189 26.1237 20.5211 27.2035 19.8698 28.1514C18.8385 29.6522 17.5085 30.9959 15.9285 31.9171C13.7483 33.1876 10.7166 33.8116 8.87682 33.3715C7.41223 33.0133 5.89433 32.211 4.67099 31.1401C3.52419 30.1375 2.83393 29.07 2.10676 27.1864C1.63656 25.9692 1.48279 25.0241 1.54293 23.7249C1.55865 23.3777 1.55113 22.982 1.53131 22.8378C1.48005 22.5186 1.25452 22.2186 1.06316 22.2138C0.871802 22.2083 0.514368 22.5644 0.39135 22.8788C0.0892742 23.6312 -0.102086 26.0055 0.0578365 26.9507C0.294987 28.3476 1.12262 30.294 2.0227 31.5652C2.4724 32.2008 3.54948 33.3571 4.21719 33.9209C5.71049 35.1908 7.48399 36.0902 9.89171 36.7975C10.5635 36.9957 10.6654 37.0046 11.683 37.0326C15.2457 37.1365 18.9075 36.0628 21.6515 34.1123C23.2712 32.958 24.5868 31.5501 25.8013 29.6536C26.5633 28.4638 27.1647 27.183 27.8147 25.931C28.3307 24.9359 28.8733 23.5431 29.9654 23.0585C30.573 22.7892 31.2906 22.8501 31.8886 22.5603C32.0779 22.4687 32.2611 22.3402 32.4722 22.3327C33.4953 22.2985 32.0369 23.8493 31.8517 24.0727C31.5168 24.4773 31.1068 24.9995 30.9448 25.2346C30.6577 25.646 30.6509 25.6699 30.6646 26.0478C30.6817 26.5098 30.8758 26.857 31.253 27.0949C31.471 27.2268 31.6139 27.2548 32.4511 27.3313C35.1117 27.5719 35.7684 27.8719 36.6466 29.2743C37.1749 30.1218 37.4264 30.3446 37.8515 30.3562C38.4386 30.3726 38.7031 29.9003 38.3812 29.4001C38.1283 29.0037 37.9834 28.3886 38.0907 28.1938C38.2479 27.9225 38.6969 28.1624 40.359 29.4069C40.588 29.575 40.8593 29.7445 40.9604 29.7773C41.3944 29.9154 41.8216 29.6331 41.8332 29.208C41.8441 28.813 41.5981 28.5964 40.7684 28.256C39.9565 27.928 39.3626 27.5104 39.3687 27.2767C39.3769 26.9835 40.0822 26.829 41.4484 26.8242C42.6232 26.8208 42.9246 26.7572 43.1126 26.4627C43.3443 26.1093 43.2376 25.6214 42.8775 25.4252C42.777 25.3623 42.5153 25.3015 42.3 25.2776C41.9651 25.2441 41.8086 25.2701 41.1559 25.4621C40.4185 25.6815 39.5574 25.8496 39.228 25.8408C39.1384 25.838 39.0257 25.7875 38.9737 25.726C38.753 25.4683 38.9307 25.1013 39.5088 24.5839C39.8218 24.3051 39.8717 24.234 39.8772 24.0488C39.8813 23.8991 39.8307 23.7659 39.7323 23.6435C39.4774 23.3189 39.2724 23.3613 38.2684 23.9326C37.3431 24.4589 36.8284 24.6543 36.1368 24.7432C35.3673 24.8416 34.8854 24.6905 34.895 24.3557C34.9073 24.1165 34.9818 24.0222 35.9195 23.0592C36.456 22.5049 37.0068 21.8666 37.3683 21.367C37.6923 20.9262 38.1331 20.3692 38.3429 20.1293C38.8186 19.6092 38.9764 19.3195 39.0749 18.7953C39.3961 17.1318 38.0525 15.4472 36.3575 15.3945C36.1901 15.3898 36.035 15.3617 36.0117 15.3248C35.9659 15.2517 36.4983 14.8526 37.5043 14.2149C39.9681 12.6588 43.0968 11.7737 46.5823 11.648C48.9156 11.568 51.1593 11.9357 53.282 12.749C54.1356 13.0784 57.4578 14.5416 57.6635 14.6851C57.74 14.7412 57.8207 14.8635 57.8357 14.9537C57.9123 15.441 58.1111 16.2734 58.2752 16.8359C58.7583 18.4549 59.5737 19.5327 60.9234 20.3549C62.6737 21.4217 64.3078 22.5993 64.9434 23.2519C65.5496 23.88 65.6248 24.1875 65.3746 24.996C65.0787 25.959 65.4382 26.8256 66.0936 26.7415C66.3882 26.7019 66.4626 26.6199 66.5809 26.2392C66.7319 25.7642 66.8823 25.5107 67.1399 25.3015C67.4406 25.0459 67.6381 25.0637 67.8937 25.3582C68.2717 25.7758 68.8786 26.5836 69.1198 26.9739C69.3898 27.401 69.6358 27.6054 69.9755 27.6744C70.417 27.7585 70.8865 27.4598 70.8967 27.0825C70.9008 26.9206 70.6309 26.5181 70.0158 25.7758C68.7918 24.3037 69.0583 24.2094 71.7045 25.1751C72.2861 25.389 72.8561 25.566 72.9764 25.5694C73.2218 25.5763 73.532 25.417 73.6817 25.199C73.8252 24.9933 73.83 24.6037 73.6906 24.4384C73.5225 24.2422 73.0188 24.0242 72.4406 23.9005C71.2849 23.6531 70.4689 23.457 70.1723 23.3585C69.875 23.2608 69.7001 23.0879 69.7814 22.9642C69.8251 22.8938 71.0942 22.5207 71.2678 22.5254C71.4298 22.5295 71.7927 22.1865 71.8522 21.9719C71.9123 21.7579 71.7982 21.5331 71.5569 21.3827C71.4038 21.2884 71.1831 21.2584 70.1238 21.2057C68.6455 21.1292 67.9409 21.0376 67.1741 20.8189C65.3309 20.2831 63.7453 18.891 62.9553 17.1134C62.5828 16.27 62.4195 15.4683 62.5814 15.2332C62.6935 15.0685 64.0262 15.0029 64.3755 15.1505C64.4643 15.1888 64.7411 15.3761 64.981 15.575C65.7608 16.214 67.008 17.0512 67.4406 17.2309C67.6716 17.3273 68.1234 17.4715 68.4453 17.546C70.1463 17.9444 71.8289 17.399 73.3605 16.6766C74.5558 16.1128 76.8091 15.4151 76.9957 13.8739C77.09 13.0962 76.6328 12.6342 76.086 12.1592C75.3575 11.5263 74.6754 10.8504 73.9558 10.2087C72.703 9.09261 71.1469 8.54929 69.465 8.77619C68.7132 8.88144 68.3079 9.00787 67.319 9.44253C66.3724 9.87173 66.0171 9.94008 65.4143 9.83347C64.752 9.71319 64.3119 9.3776 64.0228 8.77072C63.8759 8.45497 63.91 8.28208 64.2517 7.63828C64.4602 7.24873 64.6276 7.04303 65.0705 6.62408C65.9255 5.82037 66.641 5.51075 67.7208 5.48615C68.4706 5.46496 69.0194 5.55178 70.1737 5.87094C71.643 6.2769 72.2615 6.65346 72.649 7.38337C72.934 7.92464 73.3578 8.1939 73.7685 8.09139C74.0098 8.02578 74.1389 7.90959 74.279 7.62597C74.4253 7.33005 74.387 7.19131 74.0624 6.79287C73.9175 6.60903 73.7856 6.3958 73.7699 6.31721C73.722 6.09988 73.8088 5.76707 73.9366 5.70419C74.046 5.64746 74.7123 5.81558 75.514 6.10741C75.9056 6.24409 76.2466 6.27144 76.4592 6.18122C76.8228 6.0295 76.9875 5.48274 76.7817 5.13556C76.5986 4.82459 76.3731 4.74055 75.5365 4.65786C74.3173 4.53415 74.0979 4.45078 74.1068 4.11522C74.1164 3.77419 74.6631 3.70514 75.4901 3.94366C75.924 4.06941 75.9363 4.07011 76.1844 3.96281C76.5234 3.82817 76.6553 3.62793 76.6663 3.22676C76.6758 2.86727 76.5521 2.58841 76.2938 2.38338C76.1004 2.23439 75.7108 2.22346 75.1443 2.35194C74.5715 2.47975 74.469 2.49548 74.4294 2.42236C74.3433 2.2761 74.4854 2.11821 74.9365 1.85509C75.4238 1.57488 75.937 1.20517 76.1284 1.00698C76.2767 0.849102 76.2808 0.465683 76.1298 0.305759C75.9001 0.0645103 75.5071 -0.0120316 75.1743 0.104836Z" fill="#F2B30C"/>
</svg>
